<?xml version="1.0" encoding="UTF-8" standalone="no"?>
<!DOCTYPE svg PUBLIC "-//W3C//DTD SVG 1.1//EN"
 "http://www.w3.org/Graphics/SVG/1.1/DTD/svg11.dtd">
<!-- Generated by graphviz version 2.47.0 (20210316.0004)
 -->
<!-- Title: dependencies Pages: 1 -->
<svg width="1701pt" height="284pt"
 viewBox="0.00 0.00 1701.00 284.00" xmlns="http://www.w3.org/2000/svg" xmlns:xlink="http://www.w3.org/1999/xlink">
<g id="graph0" class="graph" transform="scale(1 1) rotate(0) translate(4 280)">
<title>dependencies</title>
<polygon fill="white" stroke="transparent" points="-4,4 -4,-280 1697,-280 1697,4 -4,4"/>
<text text-anchor="start" x="825.51" y="-42.4" font-family="Times-12" font-weight="bold" font-size="14.00">Legend</text>
<polygon fill="#ffffb3" stroke="transparent" points="612.5,-10 612.5,-30 632.5,-30 632.5,-10 612.5,-10"/>
<text text-anchor="start" x="636.13" y="-15.4" font-family="Times-12" font-size="14.00"> &#160;Declarations</text>
<polygon fill="#8dd3c7" stroke="transparent" points="725.5,-10 725.5,-30 745.5,-30 745.5,-10 725.5,-10"/>
<text text-anchor="start" x="749.23" y="-15.4" font-family="Times-12" font-size="14.00"> &#160;Module</text>
<polygon fill="#80b1d3" stroke="transparent" points="811.5,-10 811.5,-30 831.5,-30 831.5,-10 811.5,-10"/>
<text text-anchor="start" x="835.28" y="-15.4" font-family="Times-12" font-size="14.00"> &#160;Bootstrap</text>
<polygon fill="#fdb462" stroke="transparent" points="908.5,-10 908.5,-30 928.5,-30 928.5,-10 908.5,-10"/>
<text text-anchor="start" x="932.17" y="-15.4" font-family="Times-12" font-size="14.00"> &#160;Providers</text>
<polygon fill="#fb8072" stroke="transparent" points="1004.5,-10 1004.5,-30 1024.5,-30 1024.5,-10 1004.5,-10"/>
<text text-anchor="start" x="1028.23" y="-15.4" font-family="Times-12" font-size="14.00"> &#160;Exports</text>
<g id="clust1" class="cluster">
<title>cluster_SharedModule</title>
<polygon fill="none" stroke="black" stroke-dasharray="1,5" points="8,-70 8,-268 1685,-268 1685,-70 8,-70"/>
</g>
<g id="clust2" class="cluster">
<title>cluster_SharedModule_declarations</title>
<polygon fill="none" stroke="black" points="442,-78 442,-130 1677,-130 1677,-78 442,-78"/>
</g>
<g id="clust10" class="cluster">
<title>cluster_SharedModule_imports</title>
<polygon fill="none" stroke="black" points="16,-78 16,-130 434,-130 434,-78 16,-78"/>
</g>
<g id="clust11" class="cluster">
<title>cluster_SharedModule_exports</title>
<polygon fill="none" stroke="black" points="181,-208 181,-260 1437,-260 1437,-208 181,-208"/>
</g>
<!-- AdminFormularyComponent -->
<g id="node1" class="node">
<title>AdminFormularyComponent</title>
<polygon fill="#ffffb3" stroke="black" points="1668.82,-122 1489.18,-122 1489.18,-86 1668.82,-86 1668.82,-122"/>
<text text-anchor="middle" x="1579" y="-99.8" font-family="Times,serif" font-size="14.00">AdminFormularyComponent</text>
</g>
<!-- SharedModule -->
<g id="node8" class="node">
<title>SharedModule</title>
<polygon fill="#8dd3c7" stroke="black" points="825.42,-187 822.42,-191 801.42,-191 798.42,-187 726.58,-187 726.58,-151 825.42,-151 825.42,-187"/>
<text text-anchor="middle" x="776" y="-164.8" font-family="Times,serif" font-size="14.00">SharedModule</text>
</g>
<!-- AdminFormularyComponent&#45;&gt;SharedModule -->
<g id="edge1" class="edge">
<title>AdminFormularyComponent&#45;&gt;SharedModule</title>
<path fill="none" stroke="black" d="M1579,-122.11C1579,-141.34 1579,-169 1579,-169 1579,-169 835.32,-169 835.32,-169"/>
<polygon fill="black" stroke="black" points="835.32,-165.5 825.32,-169 835.32,-172.5 835.32,-165.5"/>
</g>
<!-- CryptocardComponent -->
<g id="node2" class="node">
<title>CryptocardComponent</title>
<polygon fill="#ffffb3" stroke="black" points="1471.31,-122 1326.69,-122 1326.69,-86 1471.31,-86 1471.31,-122"/>
<text text-anchor="middle" x="1399" y="-99.8" font-family="Times,serif" font-size="14.00">CryptocardComponent</text>
</g>
<!-- CryptocardComponent&#45;&gt;SharedModule -->
<g id="edge2" class="edge">
<title>CryptocardComponent&#45;&gt;SharedModule</title>
<path fill="none" stroke="black" d="M1378.13,-122.3C1378.13,-140.27 1378.13,-165 1378.13,-165 1378.13,-165 835.27,-165 835.27,-165"/>
<polygon fill="black" stroke="black" points="835.27,-161.5 825.27,-165 835.27,-168.5 835.27,-161.5"/>
</g>
<!-- CryptosimplecardComponent -->
<g id="node3" class="node">
<title>CryptosimplecardComponent</title>
<polygon fill="#ffffb3" stroke="black" points="1308.64,-122 1127.36,-122 1127.36,-86 1308.64,-86 1308.64,-122"/>
<text text-anchor="middle" x="1218" y="-99.8" font-family="Times,serif" font-size="14.00">CryptosimplecardComponent</text>
</g>
<!-- CryptosimplecardComponent&#45;&gt;SharedModule -->
<g id="edge3" class="edge">
<title>CryptosimplecardComponent&#45;&gt;SharedModule</title>
<path fill="none" stroke="black" d="M1178.04,-122.03C1178.04,-138.4 1178.04,-160 1178.04,-160 1178.04,-160 835.3,-160 835.3,-160"/>
<polygon fill="black" stroke="black" points="835.3,-156.5 825.3,-160 835.3,-163.5 835.3,-156.5"/>
</g>
<!-- CustomGenderComponent -->
<g id="node4" class="node">
<title>CustomGenderComponent</title>
<polygon fill="#ffffb3" stroke="black" points="1109.09,-122 942.91,-122 942.91,-86 1109.09,-86 1109.09,-122"/>
<text text-anchor="middle" x="1026" y="-99.8" font-family="Times,serif" font-size="14.00">CustomGenderComponent</text>
</g>
<!-- CustomGenderComponent&#45;&gt;SharedModule -->
<g id="edge4" class="edge">
<title>CustomGenderComponent&#45;&gt;SharedModule</title>
<path fill="none" stroke="black" d="M1003.26,-122.19C1003.26,-137.18 1003.26,-156 1003.26,-156 1003.26,-156 835.31,-156 835.31,-156"/>
<polygon fill="black" stroke="black" points="835.31,-152.5 825.31,-156 835.31,-159.5 835.31,-152.5"/>
</g>
<!-- FormularyComponent -->
<g id="node5" class="node">
<title>FormularyComponent</title>
<polygon fill="#ffffb3" stroke="black" points="925.43,-122 784.57,-122 784.57,-86 925.43,-86 925.43,-122"/>
<text text-anchor="middle" x="855" y="-99.8" font-family="Times,serif" font-size="14.00">FormularyComponent</text>
</g>
<!-- FormularyComponent&#45;&gt;SharedModule -->
<g id="edge5" class="edge">
<title>FormularyComponent&#45;&gt;SharedModule</title>
<path fill="none" stroke="black" d="M805,-122.11C805,-122.11 805,-140.99 805,-140.99"/>
<polygon fill="black" stroke="black" points="801.5,-140.99 805,-150.99 808.5,-140.99 801.5,-140.99"/>
</g>
<!-- ListcryptoComponent -->
<g id="node6" class="node">
<title>ListcryptoComponent</title>
<polygon fill="#ffffb3" stroke="black" points="766.38,-122 627.62,-122 627.62,-86 766.38,-86 766.38,-122"/>
<text text-anchor="middle" x="697" y="-99.8" font-family="Times,serif" font-size="14.00">ListcryptoComponent</text>
</g>
<!-- ListcryptoComponent&#45;&gt;SharedModule -->
<g id="edge6" class="edge">
<title>ListcryptoComponent&#45;&gt;SharedModule</title>
<path fill="none" stroke="black" d="M746.61,-122.11C746.61,-122.11 746.61,-140.99 746.61,-140.99"/>
<polygon fill="black" stroke="black" points="743.11,-140.99 746.61,-150.99 750.11,-140.99 743.11,-140.99"/>
</g>
<!-- ListformularyComponent -->
<g id="node7" class="node">
<title>ListformularyComponent</title>
<polygon fill="#ffffb3" stroke="black" points="609.59,-122 450.41,-122 450.41,-86 609.59,-86 609.59,-122"/>
<text text-anchor="middle" x="530" y="-99.8" font-family="Times,serif" font-size="14.00">ListformularyComponent</text>
</g>
<!-- ListformularyComponent&#45;&gt;SharedModule -->
<g id="edge7" class="edge">
<title>ListformularyComponent&#45;&gt;SharedModule</title>
<path fill="none" stroke="black" d="M569.29,-122.19C569.29,-137.18 569.29,-156 569.29,-156 569.29,-156 716.75,-156 716.75,-156"/>
<polygon fill="black" stroke="black" points="716.75,-159.5 726.75,-156 716.75,-152.5 716.75,-159.5"/>
</g>
<!-- AdminFormularyComponent  -->
<g id="node12" class="node">
<title>AdminFormularyComponent </title>
<polygon fill="#fb8072" stroke="black" points="1429.32,-252 1246.68,-252 1246.68,-216 1429.32,-216 1429.32,-252"/>
<text text-anchor="middle" x="1338" y="-229.8" font-family="Times,serif" font-size="14.00">AdminFormularyComponent </text>
</g>
<!-- SharedModule&#45;&gt;AdminFormularyComponent  -->
<g id="edge11" class="edge">
<title>SharedModule&#45;&gt;AdminFormularyComponent </title>
<path fill="none" stroke="black" stroke-dasharray="5,2" d="M825.48,-174C952.05,-174 1277.71,-174 1277.71,-174 1277.71,-174 1277.71,-206 1277.71,-206"/>
<polygon fill="black" stroke="black" points="1274.21,-206 1277.71,-216 1281.21,-206 1274.21,-206"/>
</g>
<!-- CryptocardComponent  -->
<g id="node13" class="node">
<title>CryptocardComponent </title>
<polygon fill="#fb8072" stroke="black" points="1228.81,-252 1081.19,-252 1081.19,-216 1228.81,-216 1228.81,-252"/>
<text text-anchor="middle" x="1155" y="-229.8" font-family="Times,serif" font-size="14.00">CryptocardComponent </text>
</g>
<!-- SharedModule&#45;&gt;CryptocardComponent  -->
<g id="edge12" class="edge">
<title>SharedModule&#45;&gt;CryptocardComponent </title>
<path fill="none" stroke="black" stroke-dasharray="5,2" d="M825.5,-178C915.13,-178 1095.07,-178 1095.07,-178 1095.07,-178 1095.07,-205.97 1095.07,-205.97"/>
<polygon fill="black" stroke="black" points="1091.57,-205.97 1095.07,-215.97 1098.57,-205.97 1091.57,-205.97"/>
</g>
<!-- CryptosimplecardComponent  -->
<g id="node14" class="node">
<title>CryptosimplecardComponent </title>
<polygon fill="#fb8072" stroke="black" points="1063.64,-252 878.36,-252 878.36,-216 1063.64,-216 1063.64,-252"/>
<text text-anchor="middle" x="971" y="-229.8" font-family="Times,serif" font-size="14.00">CryptosimplecardComponent </text>
</g>
<!-- SharedModule&#45;&gt;CryptosimplecardComponent  -->
<g id="edge13" class="edge">
<title>SharedModule&#45;&gt;CryptosimplecardComponent </title>
<path fill="none" stroke="black" stroke-dasharray="5,2" d="M825.37,-183C860.62,-183 901.82,-183 901.82,-183 901.82,-183 901.82,-205.88 901.82,-205.88"/>
<polygon fill="black" stroke="black" points="898.32,-205.88 901.82,-215.88 905.32,-205.88 898.32,-205.88"/>
</g>
<!-- CustomGenderComponent  -->
<g id="node15" class="node">
<title>CustomGenderComponent </title>
<polygon fill="#fb8072" stroke="black" points="860.59,-252 691.41,-252 691.41,-216 860.59,-216 860.59,-252"/>
<text text-anchor="middle" x="776" y="-229.8" font-family="Times,serif" font-size="14.00">CustomGenderComponent </text>
</g>
<!-- SharedModule&#45;&gt;CustomGenderComponent  -->
<g id="edge14" class="edge">
<title>SharedModule&#45;&gt;CustomGenderComponent </title>
<path fill="none" stroke="black" stroke-dasharray="5,2" d="M776,-187.11C776,-187.11 776,-205.99 776,-205.99"/>
<polygon fill="black" stroke="black" points="772.5,-205.99 776,-215.99 779.5,-205.99 772.5,-205.99"/>
</g>
<!-- FormularyComponent  -->
<g id="node16" class="node">
<title>FormularyComponent </title>
<polygon fill="#fb8072" stroke="black" points="672.93,-252 529.07,-252 529.07,-216 672.93,-216 672.93,-252"/>
<text text-anchor="middle" x="601" y="-229.8" font-family="Times,serif" font-size="14.00">FormularyComponent </text>
</g>
<!-- SharedModule&#45;&gt;FormularyComponent  -->
<g id="edge15" class="edge">
<title>SharedModule&#45;&gt;FormularyComponent </title>
<path fill="none" stroke="black" stroke-dasharray="5,2" d="M726.67,-183C691.44,-183 650.26,-183 650.26,-183 650.26,-183 650.26,-205.88 650.26,-205.88"/>
<polygon fill="black" stroke="black" points="646.76,-205.88 650.26,-215.88 653.76,-205.88 646.76,-205.88"/>
</g>
<!-- ListcryptoComponent  -->
<g id="node17" class="node">
<title>ListcryptoComponent </title>
<polygon fill="#fb8072" stroke="black" points="511.38,-252 368.62,-252 368.62,-216 511.38,-216 511.38,-252"/>
<text text-anchor="middle" x="440" y="-229.8" font-family="Times,serif" font-size="14.00">ListcryptoComponent </text>
</g>
<!-- SharedModule&#45;&gt;ListcryptoComponent  -->
<g id="edge16" class="edge">
<title>SharedModule&#45;&gt;ListcryptoComponent </title>
<path fill="none" stroke="black" stroke-dasharray="5,2" d="M726.59,-178C642.56,-178 480.82,-178 480.82,-178 480.82,-178 480.82,-205.97 480.82,-205.97"/>
<polygon fill="black" stroke="black" points="477.32,-205.97 480.82,-215.97 484.32,-205.97 477.32,-205.97"/>
</g>
<!-- ListformularyComponent  -->
<g id="node18" class="node">
<title>ListformularyComponent </title>
<polygon fill="#fb8072" stroke="black" points="351.09,-252 188.91,-252 188.91,-216 351.09,-216 351.09,-252"/>
<text text-anchor="middle" x="270" y="-229.8" font-family="Times,serif" font-size="14.00">ListformularyComponent </text>
</g>
<!-- SharedModule&#45;&gt;ListformularyComponent  -->
<g id="edge17" class="edge">
<title>SharedModule&#45;&gt;ListformularyComponent </title>
<path fill="none" stroke="black" stroke-dasharray="5,2" d="M726.54,-174C608.07,-174 317.86,-174 317.86,-174 317.86,-174 317.86,-206 317.86,-206"/>
<polygon fill="black" stroke="black" points="314.36,-206 317.86,-216 321.36,-206 314.36,-206"/>
</g>
<!-- ColorpercentDirective -->
<g id="node9" class="node">
<title>ColorpercentDirective</title>
<polygon fill="#8dd3c7" stroke="black" points="425.67,-122 422.67,-126 401.67,-126 398.67,-122 284.33,-122 284.33,-86 425.67,-86 425.67,-122"/>
<text text-anchor="middle" x="355" y="-99.8" font-family="Times,serif" font-size="14.00">ColorpercentDirective</text>
</g>
<!-- ColorpercentDirective&#45;&gt;SharedModule -->
<g id="edge8" class="edge">
<title>ColorpercentDirective&#45;&gt;SharedModule</title>
<path fill="none" stroke="black" d="M397.2,-122.03C397.2,-138.4 397.2,-160 397.2,-160 397.2,-160 716.48,-160 716.48,-160"/>
<polygon fill="black" stroke="black" points="716.48,-163.5 726.48,-160 716.48,-156.5 716.48,-163.5"/>
</g>
<!-- CurrencyPipe -->
<g id="node10" class="node">
<title>CurrencyPipe</title>
<polygon fill="#8dd3c7" stroke="black" points="266.47,-122 263.47,-126 242.47,-126 239.47,-122 173.53,-122 173.53,-86 266.47,-86 266.47,-122"/>
<text text-anchor="middle" x="220" y="-99.8" font-family="Times,serif" font-size="14.00">CurrencyPipe</text>
</g>
<!-- CurrencyPipe&#45;&gt;SharedModule -->
<g id="edge9" class="edge">
<title>CurrencyPipe&#45;&gt;SharedModule</title>
<path fill="none" stroke="black" d="M227.6,-122.3C227.6,-140.27 227.6,-165 227.6,-165 227.6,-165 716.37,-165 716.37,-165"/>
<polygon fill="black" stroke="black" points="716.37,-168.5 726.37,-165 716.37,-161.5 716.37,-168.5"/>
</g>
<!-- PercentformaterPipe -->
<g id="node11" class="node">
<title>PercentformaterPipe</title>
<polygon fill="#8dd3c7" stroke="black" points="155.56,-122 152.56,-126 131.56,-126 128.56,-122 24.44,-122 24.44,-86 155.56,-86 155.56,-122"/>
<text text-anchor="middle" x="90" y="-99.8" font-family="Times,serif" font-size="14.00">PercentformaterPipe</text>
</g>
<!-- PercentformaterPipe&#45;&gt;SharedModule -->
<g id="edge10" class="edge">
<title>PercentformaterPipe&#45;&gt;SharedModule</title>
<path fill="none" stroke="black" d="M90,-122.11C90,-141.34 90,-169 90,-169 90,-169 716.66,-169 716.66,-169"/>
<polygon fill="black" stroke="black" points="716.66,-172.5 726.66,-169 716.66,-165.5 716.66,-172.5"/>
</g>
</g>
</svg>
