<?xml version="1.0" encoding="UTF-8" standalone="no"?>
<!DOCTYPE svg PUBLIC "-//W3C//DTD SVG 1.1//EN"
 "http://www.w3.org/Graphics/SVG/1.1/DTD/svg11.dtd">
<!-- Generated by graphviz version 2.47.0 (20210316.0004)
 -->
<!-- Title: dependencies Pages: 1 -->
<svg width="504pt" height="211pt"
 viewBox="0.00 0.00 504.00 211.00" xmlns="http://www.w3.org/2000/svg" xmlns:xlink="http://www.w3.org/1999/xlink">
<g id="graph0" class="graph" transform="scale(1 1) rotate(0) translate(4 207)">
<title>dependencies</title>
<polygon fill="white" stroke="transparent" points="-4,4 -4,-207 500,-207 500,4 -4,4"/>
<text text-anchor="start" x="227.01" y="-42.4" font-family="Times-12" font-weight="bold" font-size="14.00">Legend</text>
<polygon fill="#ffffb3" stroke="transparent" points="14,-10 14,-30 34,-30 34,-10 14,-10"/>
<text text-anchor="start" x="37.63" y="-15.4" font-family="Times-12" font-size="14.00"> &#160;Declarations</text>
<polygon fill="#8dd3c7" stroke="transparent" points="127,-10 127,-30 147,-30 147,-10 127,-10"/>
<text text-anchor="start" x="150.73" y="-15.4" font-family="Times-12" font-size="14.00"> &#160;Module</text>
<polygon fill="#80b1d3" stroke="transparent" points="213,-10 213,-30 233,-30 233,-10 213,-10"/>
<text text-anchor="start" x="236.78" y="-15.4" font-family="Times-12" font-size="14.00"> &#160;Bootstrap</text>
<polygon fill="#fdb462" stroke="transparent" points="310,-10 310,-30 330,-30 330,-10 310,-10"/>
<text text-anchor="start" x="333.67" y="-15.4" font-family="Times-12" font-size="14.00"> &#160;Providers</text>
<polygon fill="#fb8072" stroke="transparent" points="406,-10 406,-30 426,-30 426,-10 406,-10"/>
<text text-anchor="start" x="429.73" y="-15.4" font-family="Times-12" font-size="14.00"> &#160;Exports</text>
<g id="clust1" class="cluster">
<title>cluster_ListcontentPageModule</title>
<polygon fill="none" stroke="black" stroke-dasharray="1,5" points="11.5,-70 11.5,-195 484.5,-195 484.5,-70 11.5,-70"/>
</g>
<g id="clust4" class="cluster">
<title>cluster_ListcontentPageModule_imports</title>
<polygon fill="none" stroke="black" points="149.5,-78 149.5,-130 476.5,-130 476.5,-78 149.5,-78"/>
</g>
<g id="clust2" class="cluster">
<title>cluster_ListcontentPageModule_declarations</title>
<polygon fill="none" stroke="black" points="19.5,-78 19.5,-130 141.5,-130 141.5,-78 19.5,-78"/>
</g>
<!-- ListcontentPage -->
<g id="node1" class="node">
<title>ListcontentPage</title>
<polygon fill="#ffffb3" stroke="black" points="133.7,-122 27.3,-122 27.3,-86 133.7,-86 133.7,-122"/>
<text text-anchor="middle" x="80.5" y="-99.8" font-family="Times,serif" font-size="14.00">ListcontentPage</text>
</g>
<!-- ListcontentPageModule -->
<g id="node2" class="node">
<title>ListcontentPageModule</title>
<polygon fill="#8dd3c7" stroke="black" points="281.25,-187 278.25,-191 257.25,-191 254.25,-187 131.75,-187 131.75,-151 281.25,-151 281.25,-187"/>
<text text-anchor="middle" x="206.5" y="-164.8" font-family="Times,serif" font-size="14.00">ListcontentPageModule</text>
</g>
<!-- ListcontentPage&#45;&gt;ListcontentPageModule -->
<g id="edge1" class="edge">
<title>ListcontentPage&#45;&gt;ListcontentPageModule</title>
<path fill="none" stroke="black" d="M133.83,-104C140.73,-104 145.44,-104 145.44,-104 145.44,-104 145.44,-140.89 145.44,-140.89"/>
<polygon fill="black" stroke="black" points="141.94,-140.89 145.44,-150.89 148.94,-140.89 141.94,-140.89"/>
</g>
<!-- ListcontentPageRoutingModule -->
<g id="node3" class="node">
<title>ListcontentPageRoutingModule</title>
<polygon fill="#8dd3c7" stroke="black" points="468.87,-122 465.87,-126 444.87,-126 441.87,-122 274.13,-122 274.13,-86 468.87,-86 468.87,-122"/>
<text text-anchor="middle" x="371.5" y="-99.8" font-family="Times,serif" font-size="14.00">ListcontentPageRoutingModule</text>
</g>
<!-- ListcontentPageRoutingModule&#45;&gt;ListcontentPageModule -->
<g id="edge2" class="edge">
<title>ListcontentPageRoutingModule&#45;&gt;ListcontentPageModule</title>
<path fill="none" stroke="black" d="M277.72,-122.11C277.72,-122.11 277.72,-140.99 277.72,-140.99"/>
<polygon fill="black" stroke="black" points="274.22,-140.99 277.72,-150.99 281.22,-140.99 274.22,-140.99"/>
</g>
<!-- SharedModule -->
<g id="node4" class="node">
<title>SharedModule</title>
<polygon fill="#8dd3c7" stroke="black" points="255.92,-122 252.92,-126 231.92,-126 228.92,-122 157.08,-122 157.08,-86 255.92,-86 255.92,-122"/>
<text text-anchor="middle" x="206.5" y="-99.8" font-family="Times,serif" font-size="14.00">SharedModule</text>
</g>
<!-- SharedModule&#45;&gt;ListcontentPageModule -->
<g id="edge3" class="edge">
<title>SharedModule&#45;&gt;ListcontentPageModule</title>
<path fill="none" stroke="black" d="M206.5,-122.11C206.5,-122.11 206.5,-140.99 206.5,-140.99"/>
<polygon fill="black" stroke="black" points="203,-140.99 206.5,-150.99 210,-140.99 203,-140.99"/>
</g>
</g>
</svg>
