<?xml version="1.0" encoding="UTF-8" standalone="no"?>
<!DOCTYPE svg PUBLIC "-//W3C//DTD SVG 1.1//EN"
 "http://www.w3.org/Graphics/SVG/1.1/DTD/svg11.dtd">
<!-- Generated by graphviz version 2.47.0 (20210316.0004)
 -->
<!-- Title: dependencies Pages: 1 -->
<svg width="504pt" height="211pt"
 viewBox="0.00 0.00 504.00 211.00" xmlns="http://www.w3.org/2000/svg" xmlns:xlink="http://www.w3.org/1999/xlink">
<g id="graph0" class="graph" transform="scale(1 1) rotate(0) translate(4 207)">
<title>dependencies</title>
<polygon fill="white" stroke="transparent" points="-4,4 -4,-207 500,-207 500,4 -4,4"/>
<text text-anchor="start" x="227.01" y="-42.4" font-family="Times-12" font-weight="bold" font-size="14.00">Legend</text>
<polygon fill="#ffffb3" stroke="transparent" points="14,-10 14,-30 34,-30 34,-10 14,-10"/>
<text text-anchor="start" x="37.63" y="-15.4" font-family="Times-12" font-size="14.00"> &#160;Declarations</text>
<polygon fill="#8dd3c7" stroke="transparent" points="127,-10 127,-30 147,-30 147,-10 127,-10"/>
<text text-anchor="start" x="150.73" y="-15.4" font-family="Times-12" font-size="14.00"> &#160;Module</text>
<polygon fill="#80b1d3" stroke="transparent" points="213,-10 213,-30 233,-30 233,-10 213,-10"/>
<text text-anchor="start" x="236.78" y="-15.4" font-family="Times-12" font-size="14.00"> &#160;Bootstrap</text>
<polygon fill="#fdb462" stroke="transparent" points="310,-10 310,-30 330,-30 330,-10 310,-10"/>
<text text-anchor="start" x="333.67" y="-15.4" font-family="Times-12" font-size="14.00"> &#160;Providers</text>
<polygon fill="#fb8072" stroke="transparent" points="406,-10 406,-30 426,-30 426,-10 406,-10"/>
<text text-anchor="start" x="429.73" y="-15.4" font-family="Times-12" font-size="14.00"> &#160;Exports</text>
<g id="clust1" class="cluster">
<title>cluster_ListPageModule</title>
<polygon fill="none" stroke="black" stroke-dasharray="1,5" points="53,-70 53,-195 443,-195 443,-70 53,-70"/>
</g>
<g id="clust4" class="cluster">
<title>cluster_ListPageModule_imports</title>
<polygon fill="none" stroke="black" points="149,-78 149,-130 435,-130 435,-78 149,-78"/>
</g>
<g id="clust2" class="cluster">
<title>cluster_ListPageModule_declarations</title>
<polygon fill="none" stroke="black" points="61,-78 61,-130 141,-130 141,-78 61,-78"/>
</g>
<!-- ListPage -->
<g id="node1" class="node">
<title>ListPage</title>
<polygon fill="#ffffb3" stroke="black" points="133.49,-122 68.51,-122 68.51,-86 133.49,-86 133.49,-122"/>
<text text-anchor="middle" x="101" y="-99.8" font-family="Times,serif" font-size="14.00">ListPage</text>
</g>
<!-- ListPageModule -->
<g id="node2" class="node">
<title>ListPageModule</title>
<polygon fill="#8dd3c7" stroke="black" points="260.04,-187 257.04,-191 236.04,-191 233.04,-187 151.96,-187 151.96,-151 260.04,-151 260.04,-187"/>
<text text-anchor="middle" x="206" y="-164.8" font-family="Times,serif" font-size="14.00">ListPageModule</text>
</g>
<!-- ListPage&#45;&gt;ListPageModule -->
<g id="edge1" class="edge">
<title>ListPage&#45;&gt;ListPageModule</title>
<path fill="none" stroke="black" d="M101,-122.11C101,-141.34 101,-169 101,-169 101,-169 141.65,-169 141.65,-169"/>
<polygon fill="black" stroke="black" points="141.65,-172.5 151.65,-169 141.65,-165.5 141.65,-172.5"/>
</g>
<!-- ListPageRoutingModule -->
<g id="node3" class="node">
<title>ListPageRoutingModule</title>
<polygon fill="#8dd3c7" stroke="black" points="426.66,-122 423.66,-126 402.66,-126 399.66,-122 273.34,-122 273.34,-86 426.66,-86 426.66,-122"/>
<text text-anchor="middle" x="350" y="-99.8" font-family="Times,serif" font-size="14.00">ListPageRoutingModule</text>
</g>
<!-- ListPageRoutingModule&#45;&gt;ListPageModule -->
<g id="edge2" class="edge">
<title>ListPageRoutingModule&#45;&gt;ListPageModule</title>
<path fill="none" stroke="black" d="M350,-122.11C350,-141.34 350,-169 350,-169 350,-169 270.44,-169 270.44,-169"/>
<polygon fill="black" stroke="black" points="270.44,-165.5 260.44,-169 270.44,-172.5 270.44,-165.5"/>
</g>
<!-- SharedModule -->
<g id="node4" class="node">
<title>SharedModule</title>
<polygon fill="#8dd3c7" stroke="black" points="255.42,-122 252.42,-126 231.42,-126 228.42,-122 156.58,-122 156.58,-86 255.42,-86 255.42,-122"/>
<text text-anchor="middle" x="206" y="-99.8" font-family="Times,serif" font-size="14.00">SharedModule</text>
</g>
<!-- SharedModule&#45;&gt;ListPageModule -->
<g id="edge3" class="edge">
<title>SharedModule&#45;&gt;ListPageModule</title>
<path fill="none" stroke="black" d="M206,-122.11C206,-122.11 206,-140.99 206,-140.99"/>
<polygon fill="black" stroke="black" points="202.5,-140.99 206,-150.99 209.5,-140.99 202.5,-140.99"/>
</g>
</g>
</svg>
