<?xml version="1.0" encoding="UTF-8" standalone="no"?>
<!DOCTYPE svg PUBLIC "-//W3C//DTD SVG 1.1//EN"
 "http://www.w3.org/Graphics/SVG/1.1/DTD/svg11.dtd">
<!-- Generated by graphviz version 2.47.0 (20210316.0004)
 -->
<!-- Title: dependencies Pages: 1 -->
<svg width="990pt" height="211pt"
 viewBox="0.00 0.00 990.00 211.00" xmlns="http://www.w3.org/2000/svg" xmlns:xlink="http://www.w3.org/1999/xlink">
<g id="graph0" class="graph" transform="scale(1 1) rotate(0) translate(4 207)">
<title>dependencies</title>
<polygon fill="white" stroke="transparent" points="-4,4 -4,-207 986,-207 986,4 -4,4"/>
<text text-anchor="start" x="470.01" y="-42.4" font-family="Times-12" font-weight="bold" font-size="14.00">Legend</text>
<polygon fill="#ffffb3" stroke="transparent" points="257,-10 257,-30 277,-30 277,-10 257,-10"/>
<text text-anchor="start" x="280.63" y="-15.4" font-family="Times-12" font-size="14.00"> &#160;Declarations</text>
<polygon fill="#8dd3c7" stroke="transparent" points="370,-10 370,-30 390,-30 390,-10 370,-10"/>
<text text-anchor="start" x="393.73" y="-15.4" font-family="Times-12" font-size="14.00"> &#160;Module</text>
<polygon fill="#80b1d3" stroke="transparent" points="456,-10 456,-30 476,-30 476,-10 456,-10"/>
<text text-anchor="start" x="479.78" y="-15.4" font-family="Times-12" font-size="14.00"> &#160;Bootstrap</text>
<polygon fill="#fdb462" stroke="transparent" points="553,-10 553,-30 573,-30 573,-10 553,-10"/>
<text text-anchor="start" x="576.67" y="-15.4" font-family="Times-12" font-size="14.00"> &#160;Providers</text>
<polygon fill="#fb8072" stroke="transparent" points="649,-10 649,-30 669,-30 669,-10 649,-10"/>
<text text-anchor="start" x="672.73" y="-15.4" font-family="Times-12" font-size="14.00"> &#160;Exports</text>
<g id="clust1" class="cluster">
<title>cluster_CryptoviewPageModule</title>
<polygon fill="none" stroke="black" stroke-dasharray="1,5" points="8,-70 8,-195 974,-195 974,-70 8,-70"/>
</g>
<g id="clust2" class="cluster">
<title>cluster_CryptoviewPageModule_declarations</title>
<polygon fill="none" stroke="black" points="840,-78 840,-130 966,-130 966,-78 840,-78"/>
</g>
<g id="clust4" class="cluster">
<title>cluster_CryptoviewPageModule_imports</title>
<polygon fill="none" stroke="black" points="16,-78 16,-130 832,-130 832,-78 16,-78"/>
</g>
<!-- CryptoviewPage -->
<g id="node1" class="node">
<title>CryptoviewPage</title>
<polygon fill="#ffffb3" stroke="black" points="957.81,-122 848.19,-122 848.19,-86 957.81,-86 957.81,-122"/>
<text text-anchor="middle" x="903" y="-99.8" font-family="Times,serif" font-size="14.00">CryptoviewPage</text>
</g>
<!-- CryptoviewPageModule -->
<g id="node2" class="node">
<title>CryptoviewPageModule</title>
<polygon fill="#8dd3c7" stroke="black" points="553.36,-187 550.36,-191 529.36,-191 526.36,-187 400.64,-187 400.64,-151 553.36,-151 553.36,-187"/>
<text text-anchor="middle" x="477" y="-164.8" font-family="Times,serif" font-size="14.00">CryptoviewPageModule</text>
</g>
<!-- CryptoviewPage&#45;&gt;CryptoviewPageModule -->
<g id="edge1" class="edge">
<title>CryptoviewPage&#45;&gt;CryptoviewPageModule</title>
<path fill="none" stroke="black" d="M903,-122.28C903,-143.32 903,-175 903,-175 903,-175 563.65,-175 563.65,-175"/>
<polygon fill="black" stroke="black" points="563.65,-171.5 553.65,-175 563.65,-178.5 563.65,-171.5"/>
</g>
<!-- BackgraphbuttonDirective -->
<g id="node3" class="node">
<title>BackgraphbuttonDirective</title>
<polygon fill="#8dd3c7" stroke="black" points="824.01,-122 821.01,-126 800.01,-126 797.01,-122 659.99,-122 659.99,-86 824.01,-86 824.01,-122"/>
<text text-anchor="middle" x="742" y="-99.8" font-family="Times,serif" font-size="14.00">BackgraphbuttonDirective</text>
</g>
<!-- BackgraphbuttonDirective&#45;&gt;CryptoviewPageModule -->
<g id="edge2" class="edge">
<title>BackgraphbuttonDirective&#45;&gt;CryptoviewPageModule</title>
<path fill="none" stroke="black" d="M742,-122.02C742,-139.37 742,-163 742,-163 742,-163 563.65,-163 563.65,-163"/>
<polygon fill="black" stroke="black" points="563.65,-159.5 553.65,-163 563.65,-166.5 563.65,-159.5"/>
</g>
<!-- ColorpercentDirective -->
<g id="node4" class="node">
<title>ColorpercentDirective</title>
<polygon fill="#8dd3c7" stroke="black" points="641.67,-122 638.67,-126 617.67,-126 614.67,-122 500.33,-122 500.33,-86 641.67,-86 641.67,-122"/>
<text text-anchor="middle" x="571" y="-99.8" font-family="Times,serif" font-size="14.00">ColorpercentDirective</text>
</g>
<!-- ColorpercentDirective&#45;&gt;CryptoviewPageModule -->
<g id="edge3" class="edge">
<title>ColorpercentDirective&#45;&gt;CryptoviewPageModule</title>
<path fill="none" stroke="black" d="M526.92,-122.11C526.92,-122.11 526.92,-140.99 526.92,-140.99"/>
<polygon fill="black" stroke="black" points="523.42,-140.99 526.92,-150.99 530.42,-140.99 523.42,-140.99"/>
</g>
<!-- CryptoviewPageRoutingModule -->
<g id="node5" class="node">
<title>CryptoviewPageRoutingModule</title>
<polygon fill="#8dd3c7" stroke="black" points="481.98,-122 478.98,-126 457.98,-126 454.98,-122 284.02,-122 284.02,-86 481.98,-86 481.98,-122"/>
<text text-anchor="middle" x="383" y="-99.8" font-family="Times,serif" font-size="14.00">CryptoviewPageRoutingModule</text>
</g>
<!-- CryptoviewPageRoutingModule&#45;&gt;CryptoviewPageModule -->
<g id="edge4" class="edge">
<title>CryptoviewPageRoutingModule&#45;&gt;CryptoviewPageModule</title>
<path fill="none" stroke="black" d="M441.28,-122.11C441.28,-122.11 441.28,-140.99 441.28,-140.99"/>
<polygon fill="black" stroke="black" points="437.78,-140.99 441.28,-150.99 444.78,-140.99 437.78,-140.99"/>
</g>
<!-- CurrencyPipe -->
<g id="node6" class="node">
<title>CurrencyPipe</title>
<polygon fill="#8dd3c7" stroke="black" points="266.47,-122 263.47,-126 242.47,-126 239.47,-122 173.53,-122 173.53,-86 266.47,-86 266.47,-122"/>
<text text-anchor="middle" x="220" y="-99.8" font-family="Times,serif" font-size="14.00">CurrencyPipe</text>
</g>
<!-- CurrencyPipe&#45;&gt;CryptoviewPageModule -->
<g id="edge5" class="edge">
<title>CurrencyPipe&#45;&gt;CryptoviewPageModule</title>
<path fill="none" stroke="black" d="M220,-122.02C220,-139.37 220,-163 220,-163 220,-163 390.59,-163 390.59,-163"/>
<polygon fill="black" stroke="black" points="390.59,-166.5 400.59,-163 390.59,-159.5 390.59,-166.5"/>
</g>
<!-- PercentformaterPipe -->
<g id="node7" class="node">
<title>PercentformaterPipe</title>
<polygon fill="#8dd3c7" stroke="black" points="155.56,-122 152.56,-126 131.56,-126 128.56,-122 24.44,-122 24.44,-86 155.56,-86 155.56,-122"/>
<text text-anchor="middle" x="90" y="-99.8" font-family="Times,serif" font-size="14.00">PercentformaterPipe</text>
</g>
<!-- PercentformaterPipe&#45;&gt;CryptoviewPageModule -->
<g id="edge6" class="edge">
<title>PercentformaterPipe&#45;&gt;CryptoviewPageModule</title>
<path fill="none" stroke="black" d="M90,-122.28C90,-143.32 90,-175 90,-175 90,-175 390.54,-175 390.54,-175"/>
<polygon fill="black" stroke="black" points="390.54,-178.5 400.54,-175 390.54,-171.5 390.54,-178.5"/>
</g>
</g>
</svg>
