<?xml version="1.0" encoding="UTF-8" standalone="no"?>
<!DOCTYPE svg PUBLIC "-//W3C//DTD SVG 1.1//EN"
 "http://www.w3.org/Graphics/SVG/1.1/DTD/svg11.dtd">
<!-- Generated by graphviz version 2.47.0 (20210316.0004)
 -->
<!-- Title: dependencies Pages: 1 -->
<svg width="504pt" height="211pt"
 viewBox="0.00 0.00 504.00 211.00" xmlns="http://www.w3.org/2000/svg" xmlns:xlink="http://www.w3.org/1999/xlink">
<g id="graph0" class="graph" transform="scale(1 1) rotate(0) translate(4 207)">
<title>dependencies</title>
<polygon fill="white" stroke="transparent" points="-4,4 -4,-207 500,-207 500,4 -4,4"/>
<text text-anchor="start" x="227.01" y="-42.4" font-family="Times-12" font-weight="bold" font-size="14.00">Legend</text>
<polygon fill="#ffffb3" stroke="transparent" points="14,-10 14,-30 34,-30 34,-10 14,-10"/>
<text text-anchor="start" x="37.63" y="-15.4" font-family="Times-12" font-size="14.00"> &#160;Declarations</text>
<polygon fill="#8dd3c7" stroke="transparent" points="127,-10 127,-30 147,-30 147,-10 127,-10"/>
<text text-anchor="start" x="150.73" y="-15.4" font-family="Times-12" font-size="14.00"> &#160;Module</text>
<polygon fill="#80b1d3" stroke="transparent" points="213,-10 213,-30 233,-30 233,-10 213,-10"/>
<text text-anchor="start" x="236.78" y="-15.4" font-family="Times-12" font-size="14.00"> &#160;Bootstrap</text>
<polygon fill="#fdb462" stroke="transparent" points="310,-10 310,-30 330,-30 330,-10 310,-10"/>
<text text-anchor="start" x="333.67" y="-15.4" font-family="Times-12" font-size="14.00"> &#160;Providers</text>
<polygon fill="#fb8072" stroke="transparent" points="406,-10 406,-30 426,-30 426,-10 406,-10"/>
<text text-anchor="start" x="429.73" y="-15.4" font-family="Times-12" font-size="14.00"> &#160;Exports</text>
<g id="clust1" class="cluster">
<title>cluster_SearchPageModule</title>
<polygon fill="none" stroke="black" stroke-dasharray="1,5" points="36,-70 36,-195 460,-195 460,-70 36,-70"/>
</g>
<g id="clust4" class="cluster">
<title>cluster_SearchPageModule_imports</title>
<polygon fill="none" stroke="black" points="150,-78 150,-130 452,-130 452,-78 150,-78"/>
</g>
<g id="clust2" class="cluster">
<title>cluster_SearchPageModule_declarations</title>
<polygon fill="none" stroke="black" points="44,-78 44,-130 142,-130 142,-78 44,-78"/>
</g>
<!-- SearchPage -->
<g id="node1" class="node">
<title>SearchPage</title>
<polygon fill="#ffffb3" stroke="black" points="133.8,-122 52.2,-122 52.2,-86 133.8,-86 133.8,-122"/>
<text text-anchor="middle" x="93" y="-99.8" font-family="Times,serif" font-size="14.00">SearchPage</text>
</g>
<!-- SearchPageModule -->
<g id="node2" class="node">
<title>SearchPageModule</title>
<polygon fill="#8dd3c7" stroke="black" points="269.35,-187 266.35,-191 245.35,-191 242.35,-187 144.65,-187 144.65,-151 269.35,-151 269.35,-187"/>
<text text-anchor="middle" x="207" y="-164.8" font-family="Times,serif" font-size="14.00">SearchPageModule</text>
</g>
<!-- SearchPage&#45;&gt;SearchPageModule -->
<g id="edge1" class="edge">
<title>SearchPage&#45;&gt;SearchPageModule</title>
<path fill="none" stroke="black" d="M133.73,-104C143.5,-104 151.18,-104 151.18,-104 151.18,-104 151.18,-140.89 151.18,-140.89"/>
<polygon fill="black" stroke="black" points="147.68,-140.89 151.18,-150.89 154.68,-140.89 147.68,-140.89"/>
</g>
<!-- SearchPageRoutingModule -->
<g id="node3" class="node">
<title>SearchPageRoutingModule</title>
<polygon fill="#8dd3c7" stroke="black" points="443.97,-122 440.97,-126 419.97,-126 416.97,-122 274.03,-122 274.03,-86 443.97,-86 443.97,-122"/>
<text text-anchor="middle" x="359" y="-99.8" font-family="Times,serif" font-size="14.00">SearchPageRoutingModule</text>
</g>
<!-- SearchPageRoutingModule&#45;&gt;SearchPageModule -->
<g id="edge2" class="edge">
<title>SearchPageRoutingModule&#45;&gt;SearchPageModule</title>
<path fill="none" stroke="black" d="M273.85,-104C267.1,-104 262.82,-104 262.82,-104 262.82,-104 262.82,-140.89 262.82,-140.89"/>
<polygon fill="black" stroke="black" points="259.32,-140.89 262.82,-150.89 266.32,-140.89 259.32,-140.89"/>
</g>
<!-- SharedModule -->
<g id="node4" class="node">
<title>SharedModule</title>
<polygon fill="#8dd3c7" stroke="black" points="256.42,-122 253.42,-126 232.42,-126 229.42,-122 157.58,-122 157.58,-86 256.42,-86 256.42,-122"/>
<text text-anchor="middle" x="207" y="-99.8" font-family="Times,serif" font-size="14.00">SharedModule</text>
</g>
<!-- SharedModule&#45;&gt;SearchPageModule -->
<g id="edge3" class="edge">
<title>SharedModule&#45;&gt;SearchPageModule</title>
<path fill="none" stroke="black" d="M207,-122.11C207,-122.11 207,-140.99 207,-140.99"/>
<polygon fill="black" stroke="black" points="203.5,-140.99 207,-150.99 210.5,-140.99 203.5,-140.99"/>
</g>
</g>
</svg>
